<svg width="32" height="32" viewBox="0 0 32 32" fill="none" xmlns="http://www.w3.org/2000/svg">
<path fill-rule="evenodd" clip-rule="evenodd" d="M15.2991 31.011L15.4057 31.0719L15.4484 31.0963C15.6176 31.1878 15.8069 31.2357 15.9993 31.2357C16.1916 31.2357 16.3809 31.1878 16.5501 31.0963L16.5928 31.0734L16.701 31.011C17.297 30.6576 17.8785 30.2804 18.4442 29.8803C19.9087 28.8464 21.277 27.6825 22.5326 26.403C25.4949 23.3706 28.5714 18.8144 28.5714 12.9523C28.5714 9.61814 27.247 6.42055 24.8894 4.06295C22.5318 1.70535 19.3342 0.380859 16 0.380859C12.6659 0.380859 9.46827 1.70535 7.11067 4.06295C4.75307 6.42055 3.42859 9.61814 3.42859 12.9523C3.42859 18.8129 6.50668 23.3706 9.46745 26.403C10.7225 27.6825 12.0903 28.8463 13.5543 29.8803C14.1205 30.2804 14.7026 30.6576 15.2991 31.011ZM16 17.5237C17.2124 17.5237 18.3752 17.0421 19.2325 16.1848C20.0898 15.3275 20.5714 14.1647 20.5714 12.9523C20.5714 11.7399 20.0898 10.5771 19.2325 9.7198C18.3752 8.86249 17.2124 8.38086 16 8.38086C14.7876 8.38086 13.6248 8.86249 12.7675 9.7198C11.9102 10.5771 11.4286 11.7399 11.4286 12.9523C11.4286 14.1647 11.9102 15.3275 12.7675 16.1848C13.6248 17.0421 14.7876 17.5237 16 17.5237Z" fill="#F8571B"/>
</svg>
